<svg width="26" height="35" viewBox="0 0 26 35" fill="none" xmlns="http://www.w3.org/2000/svg">
<path fill-rule="evenodd" clip-rule="evenodd" d="M25.4782 28.955L25.4324 11.7262C21.1459 10.0056 14.6158 4.14675 13.2677 0C12.7578 0.637185 11.4306 8.96017 11.4221 9.2644C11.2249 16.3704 18.1564 27.4502 25.4782 28.955Z" fill="#00C4B4"/>
<path fill-rule="evenodd" clip-rule="evenodd" d="M0.00555644 17.1178C0.19027 22.4954 0.132062 22.8276 0.0203025 28.5204C0.0016759 29.475 -0.00996572 30.442 0.0117653 31.3966C0.0234069 31.9003 0.0404813 32.3962 0.031168 32.9007C0.0164219 33.6535 -0.0953376 33.6869 0.297373 34.1122C0.573667 33.9811 0.741307 33.5666 1.00053 33.2469L9.46709 24.9557C9.80159 24.6678 10.1035 24.4582 10.4085 24.1454C11.336 23.1924 13.2149 21.7519 13.7916 20.7678C13.2537 19.4251 12.1881 18.5412 10.92 14.6195C10.5459 13.4623 10.2548 12.2244 10.0957 10.971C9.84893 9.03229 10.1221 8.75289 10.2999 6.99268L0.00633255 17.1178H0.00555644Z" fill="#007BFF"/>
</svg>
